<?xml version="1.0" encoding="utf-8"?>
<!-- Generator: Adobe Illustrator 25.0.1, SVG Export Plug-In . SVG Version: 6.00 Build 0)  -->
<svg version="1.1" id="Layer_1" xmlns="http://www.w3.org/2000/svg" xmlns:xlink="http://www.w3.org/1999/xlink" x="0px" y="0px"
	 viewBox="0 0 357.8 156.4" style="enable-background:new 0 0 357.8 156.4;" xml:space="preserve">
<style type="text/css">
	.st0{fill:#FFFFFF;}
</style>
<rect y="0.2" class="st0" width="22.7" height="155.9"/>
<rect x="81.4" y="0.2" class="st0" width="22.7" height="155.9"/>
<rect x="122" y="0.2" class="st0" width="22.7" height="64.2"/>
<rect x="40.7" y="0.2" class="st0" width="22.7" height="64.2"/>
<rect x="40.7" y="92" class="st0" width="22.7" height="64.2"/>
<g>
	<path class="st0" d="M122,92.7L122,92.7c0-8,6.1-14.2,14.3-14.2c5.5,0,9.1,2.3,11.5,5.7l-5.7,4.4c-1.6-1.9-3.3-3.2-5.9-3.2
		c-3.8,0-6.5,3.2-6.5,7.2v0.1c0,4.1,2.7,7.3,6.5,7.3c2.8,0,4.5-1.3,6.1-3.3l5.7,4c-2.6,3.5-6,6.1-12,6.1
		C128.3,106.7,122,100.8,122,92.7z"/>
	<path class="st0" d="M149.6,95.8L149.6,95.8c0-6.1,4.9-11.1,11.6-11.1c6.7,0,11.6,4.9,11.6,10.9v0.1c0,6-4.9,11-11.6,11
		C154.5,106.7,149.6,101.8,149.6,95.8z M165.6,95.8L165.6,95.8c0-2.6-1.9-4.8-4.5-4.8c-2.7,0-4.4,2.1-4.4,4.7v0.1
		c0,2.6,1.9,4.7,4.5,4.7C163.9,100.4,165.6,98.3,165.6,95.8z"/>
	<path class="st0" d="M175.9,85.2h7.4v2.9c1.4-1.7,3.3-3.4,6.3-3.4c4.5,0,7.1,2.9,7.1,7.7v13.7h-7.4V94.8c0-2.3-1.2-3.5-2.9-3.5
		c-1.8,0-3.1,1.2-3.1,3.5v11.4h-7.4V85.2z"/>
	<path class="st0" d="M201.8,99.7v-8.5h-2.5v-5.9h2.5v-5.3h7.4v5.3h4.9v5.9h-4.9v7.1c0,1.5,0.7,2.1,2,2.1c1,0,1.9-0.3,2.8-0.7v5.8
		c-1.3,0.7-3.1,1.2-5.1,1.2C204.4,106.6,201.8,104.7,201.8,99.7z"/>
	<path class="st0" d="M217.2,85.2h7.4v4.2c1.2-2.9,3.1-4.7,6.6-4.6v7.8h-0.6c-3.8,0-6,2.2-6,7.1v6.5h-7.4V85.2z"/>
	<path class="st0" d="M232.6,95.8L232.6,95.8c0-6.2,4.4-11.1,10.6-11.1c7.3,0,10.6,5.3,10.6,11.5c0,0.5,0,1,0,1.5h-14
		c0.6,2.3,2.2,3.5,4.5,3.5c1.7,0,3.1-0.7,4.7-2.1l4.1,3.4c-2,2.6-4.9,4.3-9.1,4.3C237.3,106.7,232.6,102.3,232.6,95.8z M246.9,94
		c-0.3-2.3-1.6-3.8-3.6-3.8c-1.9,0-3.3,1.5-3.6,3.8H246.9z"/>
	<path class="st0" d="M256.9,85.2h7.4V88c1.4-1.7,3.2-3.3,6.4-3.3c5,0,9.3,4.2,9.3,10.9v0.1c0,6.8-4.3,11-9.3,11c-3.2,0-5-1.4-6.4-3
		v8.8h-7.4V85.2z M272.7,95.7L272.7,95.7c0-2.8-1.9-4.8-4.3-4.8c-2.4,0-4.3,2-4.3,4.7v0.1c0,2.8,1.9,4.8,4.3,4.8
		C270.8,100.5,272.7,98.5,272.7,95.7z"/>
	<path class="st0" d="M283.1,77.9h7.7v5.4h-7.7V77.9z M283.3,85.2h7.4v21h-7.4V85.2z"/>
	<path class="st0" d="M293.9,95.8L293.9,95.8c0-6.2,4.4-11.1,10.6-11.1c7.3,0,10.6,5.3,10.6,11.5c0,0.5,0,1,0,1.5h-14
		c0.6,2.3,2.2,3.5,4.5,3.5c1.7,0,3.1-0.7,4.7-2.1l4.1,3.4c-2,2.6-4.9,4.3-9.1,4.3C298.6,106.7,293.9,102.3,293.9,95.8z M308.2,94
		c-0.3-2.3-1.6-3.8-3.6-3.8c-1.9,0-3.3,1.5-3.6,3.8H308.2z"/>
	<path class="st0" d="M317.5,95.8L317.5,95.8c0-6.9,4.3-11.1,9.2-11.1c3.2,0,5,1.4,6.4,3v-9.9h7.4v28.3h-7.4v-2.8
		c-1.4,1.7-3.3,3.3-6.4,3.3C321.8,106.6,317.5,102.5,317.5,95.8z M333.3,95.7L333.3,95.7c0-2.8-1.9-4.8-4.3-4.8s-4.3,1.9-4.3,4.7
		v0.1c0,2.8,1.9,4.8,4.3,4.8S333.3,98.5,333.3,95.7z"/>
</g>
<g>
	<path class="st0" d="M122,128.5h11.6c6.9,0,11.3,3.5,11.3,9.5v0.1c0,6.4-4.9,9.8-11.7,9.8h-3.7v7.8H122V128.5z M133.1,142
		c2.7,0,4.3-1.4,4.3-3.5v-0.1c0-2.3-1.6-3.6-4.3-3.6h-3.5v7.2H133.1z"/>
	<path class="st0" d="M147.7,134.7h7.4v4.2c1.2-2.9,3.1-4.7,6.6-4.6v7.8h-0.6c-3.8,0-6,2.2-6,7.1v6.5h-7.4V134.7z"/>
	<path class="st0" d="M163.1,145.3L163.1,145.3c0-6.1,4.9-11.1,11.6-11.1c6.7,0,11.6,4.9,11.6,10.9v0.1c0,6-4.9,11-11.6,11
		C167.9,156.2,163.1,151.2,163.1,145.3z M179.1,145.3L179.1,145.3c0-2.6-1.9-4.8-4.5-4.8c-2.7,0-4.4,2.1-4.4,4.7v0.1
		c0,2.6,1.9,4.7,4.5,4.7C177.4,149.9,179.1,147.8,179.1,145.3z"/>
	<path class="st0" d="M188.6,145.3L188.6,145.3c0-6.9,4.3-11.1,9.2-11.1c3.2,0,5,1.4,6.4,3v-9.9h7.4v28.3h-7.4v-2.8
		c-1.4,1.7-3.3,3.3-6.4,3.3C192.9,156.1,188.6,152,188.6,145.3z M204.4,145.2L204.4,145.2c0-2.8-1.9-4.8-4.3-4.8s-4.3,1.9-4.3,4.7
		v0.1c0,2.8,1.9,4.8,4.3,4.8S204.4,148,204.4,145.2z"/>
	<path class="st0" d="M215.5,148.4v-13.7h7.4V146c0,2.3,1.2,3.5,3,3.5c1.7,0,3.1-1.2,3.1-3.5v-11.4h7.4v21h-7.4v-2.9
		c-1.4,1.7-3.3,3.3-6.3,3.3C218.1,156.1,215.5,153.2,215.5,148.4z"/>
	<path class="st0" d="M239.3,145.3L239.3,145.3c0-6,4.6-11,11.2-11c4.3,0,7.2,1.9,9,4.7l-5,3.7c-1-1.4-2.1-2.2-3.9-2.2
		c-2.4,0-4.1,2.1-4.1,4.7v0.1c0,2.7,1.7,4.8,4.2,4.8c1.7,0,2.9-0.8,4-2.2l4.9,3.6c-1.9,2.9-4.7,4.8-9.3,4.8
		C244,156.2,239.3,151.2,239.3,145.3z"/>
	<path class="st0" d="M263.6,149.1v-8.5h-2.5v-5.9h2.5v-5.3h7.4v5.3h4.9v5.9h-4.9v7.1c0,1.5,0.7,2.1,2,2.1c1,0,1.9-0.3,2.8-0.7v5.8
		c-1.3,0.7-3.1,1.2-5.1,1.2C266.2,156.1,263.6,154.1,263.6,149.1z"/>
	<path class="st0" d="M279,127.3h7.7v5.4H279V127.3z M279.2,134.7h7.4v21h-7.4V134.7z"/>
	<path class="st0" d="M289.8,145.3L289.8,145.3c0-6.1,4.9-11.1,11.6-11.1c6.7,0,11.6,4.9,11.6,10.9v0.1c0,6-4.9,11-11.6,11
		C294.6,156.2,289.8,151.2,289.8,145.3z M305.8,145.3L305.8,145.3c0-2.6-1.9-4.8-4.5-4.8c-2.7,0-4.4,2.1-4.4,4.7v0.1
		c0,2.6,1.9,4.7,4.5,4.7C304.1,149.9,305.8,147.8,305.8,145.3z"/>
	<path class="st0" d="M316.1,134.7h7.4v2.9c1.4-1.7,3.3-3.4,6.3-3.4c4.5,0,7.1,2.9,7.1,7.7v13.7h-7.4v-11.4c0-2.3-1.2-3.5-2.9-3.5
		c-1.8,0-3.1,1.2-3.1,3.5v11.4h-7.4V134.7z"/>
	<path class="st0" d="M339.1,153l2.8-4.5c2.4,1.6,5,2.4,7.2,2.4c1.3,0,1.9-0.4,1.9-1.1v-0.1c0-0.8-1.2-1.2-3.4-1.8
		c-4.2-1.1-7.4-2.5-7.4-6.7v-0.1c0-4.5,3.6-6.9,8.4-6.9c3.1,0,6.2,0.9,8.6,2.4l-2.5,4.7c-2.2-1.2-4.5-1.9-6.2-1.9
		c-1.1,0-1.7,0.4-1.7,1v0.1c0,0.8,1.2,1.2,3.4,1.9c4.2,1.2,7.4,2.6,7.4,6.7v0.1c0,4.6-3.5,7-8.6,7C345.5,156.1,342,155.1,339.1,153z
		"/>
</g>
</svg>
