<svg xmlns="http://www.w3.org/2000/svg" viewBox="0 0 340.73 156.41"><defs><style>.cls-1{fill:#fff;}</style></defs><title>Fichier 2</title><g id="Calque_2" data-name="Calque 2"><g id="Calque_2-2" data-name="Calque 2"><rect class="cls-1" width="22.68" height="155.91"/><rect class="cls-1" x="81.36" width="22.68" height="155.91"/><rect class="cls-1" x="122.04" width="22.68" height="64.16"/><rect class="cls-1" x="40.68" width="22.68" height="64.16"/><rect class="cls-1" x="40.68" y="91.75" width="22.68" height="64.16"/><path class="cls-1" d="M122,92.43v-.08a14,14,0,0,1,14.33-14.13,13.31,13.31,0,0,1,11.53,5.67l-5.67,4.38a7.27,7.27,0,0,0-5.94-3.18c-3.81,0-6.48,3.22-6.48,7.18v.08c0,4.08,2.67,7.26,6.48,7.26,2.84,0,4.51-1.32,6.14-3.3l5.67,4A14.31,14.31,0,0,1,122,92.43Z"/><path class="cls-1" d="M149.65,95.54v-.08c0-6,4.89-11,11.65-11s11.57,4.93,11.57,10.91v.08c0,6-4.89,11-11.65,11S149.65,101.52,149.65,95.54Zm16,0v-.08a4.56,4.56,0,0,0-4.47-4.74,4.4,4.4,0,0,0-4.39,4.66v.08a4.56,4.56,0,0,0,4.47,4.74A4.4,4.4,0,0,0,165.69,95.54Z"/><path class="cls-1" d="M176,84.93h7.38v3a7.79,7.79,0,0,1,6.29-3.42c4.47,0,7.15,3,7.15,7.73v13.74h-7.38V94.57c0-2.3-1.2-3.54-2.95-3.54s-3.11,1.24-3.11,3.54v11.37H176Z"/><path class="cls-1" d="M201.87,99.42V90.88h-2.48V84.93h2.48V79.61h7.38v5.32h4.9v5.95h-4.9V98c0,1.48.66,2.1,2,2.1a6.48,6.48,0,0,0,2.8-.7v5.79a10.62,10.62,0,0,1-5.13,1.2C204.51,106.37,201.87,104.43,201.87,99.42Z"/><path class="cls-1" d="M217.33,84.93h7.38v4.24c1.2-2.88,3.14-4.74,6.64-4.59v7.77h-.62c-3.85,0-6,2.22-6,7.07v6.52h-7.38Z"/><path class="cls-1" d="M232.71,95.54v-.08c0-6.14,4.38-11,10.6-11,7.26,0,10.6,5.32,10.6,11.49,0,.47,0,1,0,1.52H239.81a4.33,4.33,0,0,0,4.55,3.45A6.37,6.37,0,0,0,249,98.8l4.07,3.38a11,11,0,0,1-9.12,4.27C237.37,106.45,232.71,102.06,232.71,95.54ZM247,93.71c-.28-2.33-1.63-3.81-3.65-3.81s-3.27,1.52-3.65,3.81Z"/><path class="cls-1" d="M257.05,84.93h7.38v2.8a7.7,7.7,0,0,1,6.37-3.26c5,0,9.32,4.15,9.32,10.87v.08c0,6.83-4.31,11-9.28,11a7.89,7.89,0,0,1-6.41-3v8.78h-7.38Zm15.81,10.53v-.08a4.31,4.31,0,1,0-8.58,0v.08c0,2.79,1.9,4.77,4.27,4.77S272.86,98.29,272.86,95.46Z"/><path class="cls-1" d="M283.3,77.59H291V83H283.3Zm.16,7.34h7.38v21h-7.38Z"/><path class="cls-1" d="M294.1,95.54v-.08c0-6.14,4.39-11,10.6-11,7.26,0,10.6,5.32,10.6,11.49,0,.47,0,1,0,1.52H301.2a4.35,4.35,0,0,0,4.55,3.45,6.37,6.37,0,0,0,4.66-2.13l4.07,3.38a11,11,0,0,1-9.12,4.27C298.76,106.45,294.1,102.06,294.1,95.54Zm14.29-1.83c-.27-2.33-1.63-3.81-3.65-3.81s-3.26,1.52-3.65,3.81Z"/><path class="cls-1" d="M317.67,95.54v-.08c0-6.84,4.27-11,9.24-11a8,8,0,0,1,6.45,3V77.59h7.37v28.35h-7.37v-2.79a7.82,7.82,0,0,1-6.41,3.26C322,106.41,317.67,102.25,317.67,95.54Zm15.8-.08v-.08a4.31,4.31,0,1,0-8.58,0v.08a4.47,4.47,0,0,0,4.31,4.77C331.57,100.23,333.47,98.25,333.47,95.46Z"/><path class="cls-1" d="M122,128.72h11.65c6.87,0,11.3,3.54,11.3,9.55v.08c0,6.41-4.93,9.79-11.69,9.79h-3.73v7.77H122Zm11.11,13.52c2.67,0,4.31-1.4,4.31-3.54v-.08c0-2.33-1.64-3.57-4.35-3.57h-3.54v7.19Z"/><path class="cls-1" d="M147.74,134.9h7.38v4.23c1.21-2.87,3.15-4.74,6.64-4.58v7.76h-.62c-3.84,0-6,2.22-6,7.07v6.53h-7.38Z"/><path class="cls-1" d="M163.12,145.5v-.08c0-6,4.89-11,11.65-11s11.57,4.93,11.57,10.91v.08c0,6-4.89,11-11.65,11S163.12,151.48,163.12,145.5Zm16,0v-.08a4.56,4.56,0,0,0-4.47-4.74,4.4,4.4,0,0,0-4.38,4.66v.08a4.55,4.55,0,0,0,4.46,4.74A4.4,4.4,0,0,0,179.16,145.5Z"/><path class="cls-1" d="M188.67,145.5v-.08c0-6.83,4.27-11,9.24-11a8,8,0,0,1,6.45,3v-9.9h7.38v28.35h-7.38v-2.8a7.78,7.78,0,0,1-6.41,3.26C193,156.37,188.67,152.22,188.67,145.5Zm15.81-.08v-.08a4.32,4.32,0,1,0-8.59,0v.08a4.48,4.48,0,0,0,4.31,4.78C202.57,150.2,204.48,148.22,204.48,145.42Z"/><path class="cls-1" d="M215.54,148.64V134.9h7.38v11.37c0,2.3,1.2,3.54,3,3.54s3.07-1.24,3.07-3.54V134.9h7.38v21H229V153a7.72,7.72,0,0,1-6.29,3.34C218.22,156.37,215.54,153.42,215.54,148.64Z"/><path class="cls-1" d="M239.46,145.5v-.08a10.91,10.91,0,0,1,11.26-10.95,9.92,9.92,0,0,1,9,4.7l-5,3.73a4.52,4.52,0,0,0-3.92-2.22c-2.37,0-4.11,2.1-4.11,4.66v.08c0,2.72,1.71,4.78,4.19,4.78a5,5,0,0,0,4-2.18l4.93,3.58a10.43,10.43,0,0,1-9.36,4.81A10.84,10.84,0,0,1,239.46,145.5Z"/><path class="cls-1" d="M263.69,149.38v-8.54h-2.48V134.9h2.48v-5.32h7.38v5.32H276v5.94h-4.89v7.1c0,1.48.66,2.1,2,2.1a6.48,6.48,0,0,0,2.8-.7v5.79a10.51,10.51,0,0,1-5.13,1.2C266.33,156.33,263.69,154.39,263.69,149.38Z"/><path class="cls-1" d="M279.15,127.56h7.69V133h-7.69Zm.15,7.34h7.38v21H279.3Z"/><path class="cls-1" d="M289.94,145.5v-.08c0-6,4.89-11,11.65-11s11.57,4.93,11.57,10.91v.08c0,6-4.89,11-11.65,11S289.94,151.48,289.94,145.5Zm16,0v-.08a4.56,4.56,0,0,0-4.47-4.74,4.4,4.4,0,0,0-4.39,4.66v.08a4.56,4.56,0,0,0,4.47,4.74A4.4,4.4,0,0,0,306,145.5Z"/><path class="cls-1" d="M316.27,134.9h7.38v2.95a7.77,7.77,0,0,1,6.29-3.42c4.46,0,7.14,2.95,7.14,7.73v13.75H329.7V144.53c0-2.29-1.2-3.54-2.95-3.54s-3.1,1.25-3.1,3.54v11.38h-7.38Z"/></g></g></svg>